<svg xmlns="http://www.w3.org/2000/svg" xmlns:xlink="http://www.w3.org/1999/xlink" width="1080" zoomAndPan="magnify" viewBox="0 0 810 809.999993" height="1080" preserveAspectRatio="xMidYMid meet" version="1.2"><g id="52e863a5e2"><path style=" stroke:none;fill-rule:nonzero;fill:#83bd53;fill-opacity:1;" d="M 293.210938 321.339844 C 282.210938 327.746094 273.75 329.335938 261.09375 329.773438 L 250.730469 330.183594 L 239.992188 330.511719 L 229.085938 330.921875 C 220.214844 331.25 211.347656 331.550781 202.476562 331.820312 L 205.964844 349.289062 L 212.945312 349.289062 L 219.925781 359.769531 C 243.058594 364.117188 269.398438 359.195312 292.773438 357.148438 L 301.449219 356.5 C 315.28125 355.128906 322.921875 353.996094 334.460938 345.738281 L 342.066406 338.808594 C 359.195312 333.027344 377.644531 334.53125 395.503906 334.441406 L 406.292969 334.226562 C 427.3125 334.113281 442.175781 335.691406 460.71875 345.796875 L 471.1875 352.78125 C 492.71875 358.371094 515.378906 358.539062 537.492188 359.769531 L 548.847656 360.476562 L 559.085938 360.863281 L 568.179688 361.257812 L 575.878906 359.769531 C 582.660156 352.859375 585.84375 347.664062 588.371094 338.320312 L 589.839844 331.820312 L 582.578125 331.613281 C 571.769531 331.28125 560.953125 330.894531 550.144531 330.511719 L 538.722656 330.183594 L 527.816406 329.773438 L 517.734375 329.441406 L 509.574219 328.328125 L 502.59375 321.339844 C 643.40625 309.269531 643.40625 309.269531 694.53125 321.339844 L 694.53125 324.835938 C 681.371094 326.003906 668.214844 327.167969 655.054688 328.328125 C 651.3125 328.660156 647.574219 328.992188 643.71875 329.339844 L 632.847656 330.296875 L 622.824219 331.179688 C 614.265625 331.820312 614.265625 331.820312 603.796875 331.820312 L 603.796875 345.796875 L 610.5625 350.597656 L 617.757812 356.277344 C 621.03125 366.320312 621.03125 366.320312 621.246094 377.234375 C 617.539062 387.0625 617.539062 387.0625 610.777344 394.703125 C 600.746094 398.417969 600.746094 398.417969 589.839844 398.195312 L 581.882812 391.28125 C 572.855469 383.402344 572.855469 383.402344 561.398438 382.625 C 548.183594 382.90625 534.988281 383.246094 521.789062 383.785156 L 507.84375 383.949219 C 495.246094 384.382812 483.519531 385.089844 471.1875 387.714844 C 462.433594 393.96875 459.429688 399.238281 453.738281 408.675781 C 445.851562 413.890625 440.269531 415.613281 430.839844 416.625 C 420.003906 416.734375 409.171875 416.777344 398.339844 416.753906 L 386.953125 416.929688 C 371.285156 416.9375 358.484375 416.496094 343.566406 411.449219 C 335.085938 405.183594 335.085938 405.183594 330.730469 396.242188 L 324.617188 387.714844 C 314.167969 384.757812 314.167969 384.757812 302.074219 384.753906 L 288.574219 384.257812 L 281.546875 384.140625 C 274.5 383.980469 267.453125 383.730469 260.414062 383.382812 C 241.859375 382.757812 241.859375 382.757812 223.414062 384.222656 C 213.992188 391.050781 213.992188 391.050781 205.964844 398.195312 C 194.855469 397.972656 187.992188 396.484375 178.484375 390.773438 C 174.558594 384.222656 174.558594 384.222656 173.03125 372.214844 L 174.558594 359.769531 C 179.0625 354.964844 183.71875 350.308594 188.515625 345.796875 C 187.382812 338.460938 187.382812 338.460938 185.027344 331.820312 C 178.652344 331.507812 178.652344 331.507812 172.144531 331.179688 L 155.144531 330.292969 L 146.6875 329.875 C 130.1875 329.003906 114.097656 327.445312 97.78125 324.835938 L 97.78125 321.339844 C 164.070312 313.867188 227.042969 315.25 293.210938 321.339844 "/><path style=" stroke:none;fill-rule:nonzero;fill:#88c854;fill-opacity:1;" d="M 198.984375 422.652344 L 212.945312 422.652344 L 216.640625 435.394531 L 221.453125 451.90625 L 223.886719 460.3125 L 226.238281 468.367188 L 228.394531 475.792969 C 230.304688 482.300781 230.304688 482.300781 233.882812 489.027344 C 240.605469 490.515625 240.605469 490.515625 248.5 491.429688 C 258.039062 493.386719 264.253906 495.253906 272.148438 501.035156 C 278.082031 507.292969 282.421875 512.71875 286.230469 520.464844 C 286.027344 532.84375 284.746094 540.902344 279.25 551.90625 L 284.972656 554.746094 C 290.925781 557.75 296.851562 560.804688 302.75 563.914062 L 313.277344 569.375 L 323.6875 574.835938 C 358.441406 590.144531 395.488281 590.28125 432.800781 586.839844 C 465.289062 581.582031 492.410156 567.117188 517.753906 546.492188 C 543.554688 522.675781 559.527344 497.128906 572.390625 464.570312 C 565.335938 473.753906 559.058594 483.113281 552.980469 492.957031 C 535.746094 518.980469 512.679688 543.734375 485.144531 558.894531 L 478.167969 558.894531 C 474.675781 551.90625 474.675781 551.90625 474.484375 544.8125 C 476.453125 517.761719 485.257812 497.765625 500.070312 475.273438 C 517.335938 452.832031 543.121094 438.1875 568.464844 426.363281 C 578.773438 422.851562 586.046875 421.667969 596.816406 422.652344 C 600.308594 433.132812 600.308594 433.132812 599.09375 442.617188 C 590.726562 480.378906 576.550781 514.296875 551.808594 544.363281 C 523.617188 573.367188 490.003906 592.941406 451.558594 604.675781 C 417.515625 612.804688 377.078125 611.632812 342.832031 605.402344 C 332.972656 602.28125 323.410156 598.421875 314.148438 593.828125 L 304.359375 589.339844 C 272.992188 573.722656 247.324219 552.363281 227.558594 523.304688 C 210.175781 494.03125 196.839844 460.449219 195.496094 426.144531 Z M 198.984375 422.652344 "/><path style=" stroke:none;fill-rule:nonzero;fill:#88c853;fill-opacity:1;" d="M 474.675781 234.007812 C 498.605469 244.855469 518.320312 258.015625 537.492188 275.925781 L 534.003906 289.902344 C 521.035156 285.269531 511.316406 279.484375 500.414062 271.125 C 474.507812 252.644531 445.996094 243.328125 414.699219 238.386719 C 381.828125 235.417969 351.296875 241.984375 321.128906 254.964844 C 311.792969 260.003906 302.667969 265.402344 293.753906 271.152344 C 286.765625 275.589844 279.738281 279.347656 272.269531 282.914062 L 272.269531 289.902344 L 258.3125 286.40625 C 258.910156 280.386719 258.910156 280.386719 261.800781 272.433594 C 286.789062 248.320312 315.808594 233.203125 349.046875 223.527344 C 391.988281 214.59375 433.941406 218.164062 474.675781 234.007812 "/><path style=" stroke:none;fill-rule:nonzero;fill:#85c64e;fill-opacity:1;" d="M 373.472656 426.144531 L 422.332031 426.144531 C 430.320312 446.148438 430.320312 446.148438 428.875 459.769531 C 427.417969 469.492188 426.421875 474.222656 420.585938 482.257812 C 407.429688 487.195312 394.332031 487.503906 380.453125 485.53125 L 369.984375 478.546875 C 368.839844 468.171875 368.839844 468.171875 369.113281 455.839844 C 369.164062 451.769531 369.214844 447.699219 369.277344 443.503906 C 369.984375 433.132812 369.984375 433.132812 373.472656 426.144531 M 394.414062 440.117188 L 383.941406 447.105469 C 383.070312 456.132812 383.070312 456.132812 383.941406 464.570312 C 394.0625 466.941406 394.0625 466.941406 404.882812 468.066406 L 411.859375 461.078125 C 411.8125 453.890625 411.8125 453.890625 408.371094 447.105469 C 401.449219 442.621094 401.449219 442.621094 394.414062 440.117188 "/><path style=" stroke:none;fill-rule:nonzero;fill:#93c965;fill-opacity:1;" d="M 293.210938 321.339844 C 282.210938 327.746094 273.75 329.335938 261.09375 329.773438 L 250.730469 330.183594 L 239.992188 330.511719 L 229.085938 330.921875 C 220.214844 331.25 211.347656 331.550781 202.476562 331.820312 L 202.476562 317.847656 L 192.007812 317.847656 L 192.007812 324.835938 C 180.394531 330.644531 167.460938 328.824219 154.710938 328.765625 L 146.347656 328.808594 C 129.792969 328.777344 114.105469 327.589844 97.78125 324.835938 L 97.78125 321.339844 C 164.070312 313.867188 227.042969 315.25 293.210938 321.339844 "/><path style=" stroke:none;fill-rule:nonzero;fill:#83b35a;fill-opacity:1;" d="M 547.960938 454.089844 L 551.453125 461.078125 L 544.472656 461.078125 L 543.941406 468.324219 C 539.792969 482.652344 531.371094 491.359375 521.570312 502.347656 L 516.070312 508.667969 C 511.601562 513.789062 507.109375 518.882812 502.59375 523.960938 L 495.617188 520.464844 C 496.972656 510.582031 498.726562 503.617188 503.929688 495.03125 C 517.214844 478.089844 529.757812 465.617188 547.960938 454.089844 "/><path style=" stroke:none;fill-rule:nonzero;fill:#91c863;fill-opacity:1;" d="M 596.816406 317.847656 C 609.835938 317.742188 622.84375 317.683594 635.863281 317.632812 L 647.019531 317.539062 L 657.820312 317.503906 L 667.734375 317.449219 C 677.015625 317.84375 685.488281 319.265625 694.53125 321.339844 L 694.53125 324.835938 C 681.449219 326.109375 668.359375 327.332031 655.273438 328.546875 L 644.023438 329.644531 L 633.1875 330.632812 L 623.21875 331.578125 C 614.5625 331.816406 608.316406 331.625 600.308594 328.328125 Z M 596.816406 317.847656 "/><path style=" stroke:none;fill-rule:nonzero;fill:#92c964;fill-opacity:1;" d="M 586.347656 317.847656 L 589.839844 331.820312 C 576.605469 331.4375 563.371094 330.984375 550.144531 330.511719 L 538.722656 330.183594 L 527.816406 329.773438 L 517.734375 329.441406 L 509.574219 328.328125 L 502.59375 321.339844 C 530.558594 317.730469 558.1875 317.480469 586.347656 317.847656 "/><path style=" stroke:none;fill-rule:nonzero;fill:#94ca68;fill-opacity:1;" d="M 171.066406 317.847656 C 165.136719 323.03125 165.136719 323.03125 157.109375 328.328125 C 148.96875 329.472656 148.96875 329.472656 140.316406 329.203125 L 131.113281 328.929688 C 119.929688 328.152344 108.820312 326.789062 97.78125 324.835938 L 97.78125 321.339844 C 122.351562 318.0625 146.300781 317.472656 171.066406 317.847656 "/><path style=" stroke:none;fill-rule:nonzero;fill:#cce7b5;fill-opacity:1;" d="M 530.511719 447.105469 L 537.492188 450.597656 L 495.617188 492.519531 L 495.617188 482.039062 C 504.945312 468.335938 516.628906 456.1875 530.511719 447.105469 "/><path style=" stroke:none;fill-rule:nonzero;fill:#a6e580;fill-opacity:1;" d="M 296.699219 468.066406 L 307.167969 468.066406 C 303.03125 479.855469 299.226562 487.792969 289.71875 496.011719 L 279.25 492.519531 C 281.894531 488.414062 284.597656 484.34375 287.320312 480.292969 L 291.859375 473.414062 Z M 296.699219 468.066406 "/><path style=" stroke:none;fill-rule:nonzero;fill:#92d857;fill-opacity:1;" d="M 251.332031 443.609375 L 261.800781 447.105469 L 254.820312 475.050781 L 244.351562 471.558594 C 245.394531 463.390625 246.554688 455.238281 247.84375 447.105469 Z M 251.332031 443.609375 "/><path style=" stroke:none;fill-rule:nonzero;fill:#a0dd6d;fill-opacity:1;" d="M 331.597656 513.480469 L 331.597656 523.960938 L 296.699219 523.960938 L 296.699219 516.972656 C 308.820312 512.929688 318.894531 513.238281 331.597656 513.480469 "/><path style=" stroke:none;fill-rule:nonzero;fill:#81bc50;fill-opacity:1;" d="M 181.535156 321.339844 L 181.535156 328.328125 L 157.109375 328.328125 L 153.617188 321.339844 C 165.089844 318.546875 170.054688 317.507812 181.535156 321.339844 "/></g></svg>